Coordinates
version=1
nRows=9
nColumns=24
inDegrees=yes

Units are S.I. units (second, meters, Newtons, ...)
Angles are in degrees.

endheader
time	pelvis_tilt	pelvis_list	pelvis_rotation	pelvis_tx	pelvis_ty	pelvis_tz	hip_flexion_r	hip_adduction_r	hip_rotation_r	knee_angle_r	ankle_angle_r	subtalar_angle_r	mtp_angle_r	hip_flexion_l	hip_adduction_l	hip_rotation_l	knee_angle_l	ankle_angle_l	subtalar_angle_l	mtp_angle_l	lumbar_extension	lumbar_bending	lumbar_rotation
      0.47100000	     -4.35398897	      4.20877966	     -0.41248117	     -0.85008827	      0.99664695	      0.28740151	     26.15524351	     -2.94954082	     -4.69546449	      0.39263678	     -0.84273080	     -8.88670638	     -6.37253022	     -6.01211616	      5.98053389	     -7.12191396	    -10.65788402	     11.69223018	    -10.40642372	    -14.68502868	     -7.98274169	     -4.92890247	      0.25574383
      0.47516667	     -4.23435990	      4.13173793	     -0.40008178	     -0.84417904	      0.99608408	      0.28756073	     26.10033005	     -2.86562984	     -4.67184262	      0.03020514	     -0.94557034	     -8.90403937	     -6.33107545	     -6.24885438	      5.84623756	     -7.05814954	    -11.20712992	     11.91204479	    -10.33067069	    -14.68860857	     -8.10571042	     -4.77089942	      0.26052767
      0.47933333	     -4.00502950	      3.96469029	     -0.36779213	     -0.83815249	      0.99579111	      0.28771270	     25.89296063	     -2.70041850	     -4.74535002	     -0.35116285	     -1.15183092	     -9.00635031	     -6.22591109	     -6.57741544	      5.59139610	     -7.08776462	    -11.81490157	     12.07002452	    -10.05018617	    -14.68456666	     -8.35014784	     -4.50006681	      0.19306525
      0.48350000	     -3.75175944	      3.81321619	     -0.35714653	     -0.83214929	      0.99555165	      0.28788194	     25.67918564	     -2.54375953	     -4.77212666	     -0.81732001	     -1.36666965	     -9.14403042	     -6.10244434	     -6.92473263	      5.36355212	     -7.08072473	    -12.42667894	     12.20862172	     -9.89410976	    -14.66206680	     -8.62795538	     -4.24605910	      0.16096524
      0.48766667	     -3.61944137	      3.69552170	     -0.35302812	     -0.82618529	      0.99513580	      0.28805776	     25.62410311	     -2.41730545	     -4.75223252	     -1.37778267	     -1.58649672	     -9.24302104	     -6.04461277	     -7.09786413	      5.17766344	     -7.02970348	    -13.12670813	     12.32852240	     -9.88439394	    -14.64329253	     -8.76959181	     -4.03288687	      0.15003826
      0.49183333	     -3.33772596	      3.47269921	     -0.31861755	     -0.82004023	      0.99505215	      0.28821976	     25.34944590	     -2.19614142	     -4.84026267	     -1.89898315	     -1.93641732	     -9.51435408	     -5.87405314	     -7.41828423	      4.84728645	     -7.09387522	    -13.86504360	     12.40391969	     -9.56708059	    -14.57348992	     -9.06062772	     -3.68063051	      0.06230890
      0.49600000	     -3.21039898	      3.38113465	     -0.35557578	     -0.81402951	      0.99468939	      0.28844902	     25.33636429	     -2.08490029	     -4.83724281	     -2.60729981	     -2.17490758	     -9.59816934	     -5.84703177	     -7.54622081	      4.69238975	     -7.09803264	    -14.62311300	     12.34595010	     -9.64534515	    -14.55996595	     -9.18130956	     -3.49641156	      0.07013192
      0.50016667	     -2.86392252	      3.09689345	     -0.34544421	     -0.80782492	      0.99479085	      0.28870441	     24.95632246	     -1.78354731	     -4.84644664	     -3.12534785	     -2.65937856	    -10.03593789	     -5.55667757	     -7.88100154	      4.28388724	     -7.21893327	    -15.48054964	     12.46028312	     -9.29223537	    -14.38414170	     -9.55163850	     -3.07032212	     -0.02997410
      0.50433333	     -2.69424966	      2.90946828	     -0.30575767	     -0.80170034	      0.99463842	      0.28884920	     24.82943560	     -1.60140852	     -4.90941521	     -3.78854170	     -3.06467293	    -10.36268890	     -5.36879070	     -7.98004686	      3.99427384	     -7.21612191	    -16.39531827	     12.40621405	     -9.18483562	    -14.24968154	     -9.72220650	     -2.77364457	      0.01062836
